<?xml version="1.0" encoding="UTF-8"?>
<!DOCTYPE svg PUBLIC "-//W3C//DTD SVG 1.1//EN" "http://www.w3.org/Graphics/SVG/1.1/DTD/svg11.dtd">
<!-- Creator: CorelDRAW -->
<svg xmlns="http://www.w3.org/2000/svg" xml:space="preserve" width="145.794mm" height="147.432mm" version="1.1" style="shape-rendering:geometricPrecision; text-rendering:geometricPrecision; image-rendering:optimizeQuality; fill-rule:evenodd; clip-rule:evenodd"
viewBox="0 0 14565.13 14728.79"
 xmlns:xlink="http://www.w3.org/1999/xlink"
 xmlns:xodm="http://www.corel.com/coreldraw/odm/2003">
 <defs>
  <style type="text/css">
   <![CDATA[
    .fil1 {fill:#060505}
    .fil4 {fill:#E22125}
    .fil2 {fill:#EE8681}
    .fil3 {fill:#F2B1B5}
    .fil0 {fill:#FEFEFE}
   ]]>
  </style>
 </defs>
 <g id="Layer_x0020_1">
  <metadata id="CorelCorpID_0Corel-Layer"/>
  <g id="_1917213872864">
   <path class="fil0" d="M6968.13 6094.68c788.97,-263.28 1306.54,565.5 502.55,789.92 -756.26,211.1 -1325.61,-515.27 -502.55,-789.92zm-2545.67 -786.61c553.17,-175.27 694.96,783.91 224.35,906.02 -600.7,155.87 -729.56,-745.96 -224.35,-906.02zm5024.08 -372.09c616.74,-216.64 738.1,711.83 300.12,842.09 -563.61,167.61 -893.79,-633.55 -300.12,-842.09zm-7060.11 -1986.02l317.92 -5.43c70.25,260.81 -367.63,750.64 -544.35,1516.36 -388.81,1684.62 760.22,525.23 731.55,1222.28 -197.09,83.5 -405.17,12.23 -625.38,140.94 -73.92,727.84 400.84,609.89 891.21,761.9 452.38,140.23 772.25,321.27 1091.29,558.37 312,231.87 613.73,480.15 922.9,732.74 517.2,422.56 372.16,425.04 1241.18,406.09 1022.71,-22.3 1983.21,-155.11 2947.14,-351.55 643.32,-131.1 2003.56,-606.54 2111.04,-1226.67l-53.78 -33.99c-165.23,-100.31 -76.16,-11.14 -157.19,-106.96 53,-394.06 235.81,-70.74 501.69,-216.21 152.37,-83.37 226.73,-345.02 164.05,-507.49 -171.91,-65.64 -287.86,15.16 -371.49,-157.2 -24.47,-209.68 373.44,-179.22 412.9,-186.53 213.93,-39.57 128.72,-432.88 100.95,-612.71 -282.26,-43.23 -431.52,69.65 -707.06,4.94l-60.3 -189.03c376.74,-405.13 915.28,128.65 631.98,-765.15 -79.33,-250.31 -73.92,-216.09 -221.87,-376.61 -529.1,60.79 -867.32,817.04 -1632.14,323.67 -222.71,-143.66 -399.23,-395.38 -576.92,-516.54 -218.45,-148.95 -448.69,-31.67 -815.54,-310.87 -441.22,-335.81 -243.26,-202.56 -773.52,-63.34 -635.73,166.91 -1301.01,-23.32 -1488.23,-672.27 -97.76,-338.89 11.86,-645.93 21.2,-1004.33 -418.24,-46.88 -1103.75,96.57 -1466.7,187.17 -389.41,97.19 -335.6,95.86 -690.87,-28 -728.57,-254.02 -1584.54,-591.81 -1886.69,51.19 -301.53,641.67 -119.11,1008.19 -14.96,1425.21z"/>
   <path class="fil1" d="M3141.09 11427.44c299.77,-6.04 620.59,546.78 897.04,717.94 609.77,377.53 847.34,137.25 1785.19,643.56 159.9,86.33 344.17,225.01 512.07,299.86 202.13,90.1 1123.53,191.96 1414.25,209.3 72.79,635.9 -476.01,1081.01 -1026.33,1194.07 -634.35,130.32 -1336.81,-150.63 -1789.57,-386.12 -821.72,-427.39 -1935.47,-1404.42 -1792.66,-2678.6zm-631.48 -202.34l334.1 -4.35c104.97,752.32 -14.9,1052.71 358.94,1656.76 136.25,220.14 269.5,362.57 461.84,559.76 128.03,131.26 390.98,349.02 493.38,529.92 -230.99,-31.47 -628.91,-277.22 -776.53,-388.26 -247.5,-186.19 -384.58,-307.34 -585.73,-573.37 -290.89,-384.73 -611.77,-1311.18 -286,-1780.47zm1233.55 -1430.98c-72.22,809.32 -1271.44,661.85 -1316.64,8.7 -19.87,-287.05 317.55,-587.65 625.48,-504.32 71.13,19.24 574.82,416.32 691.16,495.62zm8319.4 -392.4c73.17,560.29 -192.21,833.44 -492.83,1091.64 -182.42,156.69 -811.58,607.71 -1002.78,647.22 -305.36,-375.19 -287.35,-456.32 -192.01,-643.85 533.64,-1049.74 -669.81,-1138.53 684.89,-1152.56 351.72,-3.65 676.76,-4.12 1002.73,57.55zm-2052.57 -441.63c255.39,-113.71 1482.87,-688.39 1648.33,-705.4 67.7,90.98 321.36,762.89 335.96,924.39 -278,-0.11 -1444.25,25.95 -1656.59,-15.91 -382.31,-75.37 -319.2,-142.91 -327.7,-203.07zm-514.88 194.7c1008.1,453.23 857.72,1313.21 227.67,1534.26 -1108.75,389.01 -4071.29,-1072.77 -3023.49,-1900.41 484.79,-382.94 1062.96,-292.9 1638.08,-131.01 199.4,56.14 340.38,151.93 563.45,180.32 63.58,-120.12 259.63,-337.71 455.22,-283.72 239.7,66.17 137.18,416.42 139.07,600.56zm-7447.83 1219.19c284.02,-15.99 1059.07,674.34 1666.34,77.51 167.95,-165.07 184.21,-282.59 310.99,-466.37 220.43,-319.53 634.93,-289.96 1018.23,-492.72 451.93,-239.05 433.22,-449.36 665.79,-840.5l609.15 7.6c40.92,187.16 -538.97,689.72 565.45,1522.38 528.38,398.37 1026.37,502.23 1696.32,699.49 474.49,139.7 481.33,54.11 614.78,544.74 110.51,406.32 563.53,1678.91 224.38,1917.85 -233.26,164.34 -703.27,34.09 -954.35,-60.03 -1107.56,-415.19 -1252.99,-157.32 -1944.69,-413.82 -303.43,-112.52 -539.26,-259.52 -764.29,-433.65 -349.52,-270.47 -502.95,-151.45 -943.15,-258.54 -776.01,-188.79 -960.89,-700.38 -1403.21,-990.1 -538.55,-352.75 -1865.46,-166.46 -1361.75,-813.85zm-1304.91 -2159.9c144.33,41.71 220.37,16.35 351.48,37.44 191.94,30.88 92.43,142 233.19,405.73 208.28,390.22 563.7,471.88 885.84,655.19 -3.63,96.11 -7.92,116.42 -81.42,190.03 -141.07,141.32 -402.82,205.02 -608.5,123.58 -343.73,-136.12 -273.2,-334.47 -382.73,-665.97 -283.24,-105.69 -525.81,39.97 -797.37,-231.79 -198.87,-199.03 -108.28,-496.17 84.99,-670.08 131.35,46.37 172.26,114.75 314.52,155.87zm903.04 -361.05c-287.02,60.73 -977.4,283.47 -981.59,-194.97 -2.97,-338.98 346.41,-592.82 592.48,-726.15 647.65,-350.93 1602.29,-138.56 2172.1,117.47 598.12,268.76 1073.68,740.72 1476.31,1130.36 225.78,218.51 539.49,462.26 208.46,818.72 -410.99,442.56 -1282.86,527.52 -1676.77,158.1 -174.55,-163.7 -231.74,-337.36 -403.36,-466.51 -126.51,52.24 -170.86,243.99 -436.59,327.3 -411.23,128.92 -870.22,-126.79 -1005.32,-521.19 -113.54,-331.47 -32.04,-366.49 54.29,-643.12zm8649.3 -4899.42c-52.62,-232.6 46.07,-381.26 206.2,-443.1l142.85 106.47 -40.39 319.02 -177.24 19.22 -131.42 -1.61zm-969.11 -1305.07c436.38,-101.1 810,237.37 809.18,687.01 -1.89,1041.89 -1517.64,977.72 -1587.32,70.96 -40.23,-523.47 375,-664.58 778.14,-757.97zm1029.63 299.64c787.73,-524.36 1984.7,-59 1335.1,1053.54 -680.03,1164.68 -1797.79,804.71 -1884.18,285.41 372.11,-384.83 815.88,12.47 990.27,-406.6 236.23,-567.66 -419.7,-412.06 -441.2,-932.35zm-2292.24 71.45c-29.24,-191.7 -42.55,-275.28 111.68,-390.14 99.43,-74.04 220.44,-125.22 369.87,-92.71 39.86,131.36 -30.7,784.64 -481.55,482.85zm-5676.57 930.33c-104.16,-417.01 -286.57,-783.53 14.96,-1425.21 302.15,-643 1158.13,-305.21 1886.69,-51.19 355.27,123.86 301.47,125.2 690.87,28 362.95,-90.6 1048.45,-234.05 1466.7,-187.17 -9.34,358.4 -118.96,665.44 -21.2,1004.33 187.23,648.96 852.51,839.18 1488.23,672.27 530.26,-139.22 332.3,-272.47 773.52,63.34 366.85,279.2 597.1,161.91 815.54,310.87 177.69,121.16 354.2,372.89 576.92,516.54 764.82,493.37 1103.04,-262.88 1632.14,-323.67 147.96,160.52 142.54,126.31 221.87,376.61 283.3,893.81 -255.24,360.02 -631.98,765.15l60.3 189.03c275.54,64.72 424.79,-48.16 707.06,-4.94 27.77,179.83 112.98,573.14 -100.95,612.71 -39.45,7.3 -437.36,-23.16 -412.9,186.53 83.63,172.35 199.57,91.56 371.49,157.2 62.68,162.47 -11.68,424.13 -164.05,507.49 -265.88,145.47 -448.69,-177.86 -501.69,216.21 81.03,95.82 -8.04,6.64 157.19,106.96l53.78 33.99c-107.47,620.13 -1467.71,1095.57 -2111.04,1226.67 -963.93,196.44 -1924.43,329.25 -2947.14,351.55 -869.02,18.95 -723.97,16.46 -1241.18,-406.09 -309.17,-252.59 -610.89,-500.87 -922.9,-732.74 -319.04,-237.11 -638.92,-418.14 -1091.29,-558.37 -490.37,-152.01 -965.13,-34.07 -891.21,-761.9 220.2,-128.71 428.29,-57.44 625.38,-140.94 28.66,-697.06 -1120.36,462.34 -731.55,-1222.28 176.72,-765.72 614.6,-1255.54 544.35,-1516.36l-317.92 5.43zm5336.7 -2584.53c418.82,-145.1 716.69,149.03 906.51,350.39 81.73,86.7 760.29,839.16 182.98,756.92 -167.7,-23.89 -730.24,-339.66 -962.07,223.3 -211.37,513.24 518.26,505.35 440.27,791.32 -157.85,578.7 -2435.89,553.98 -1272.12,-1484.2 60.89,-106.63 218.38,-307.71 290.13,-378.25 158.81,-156.15 188.54,-181.26 414.29,-259.48zm1526.44 525.68c228.06,-181.64 852.22,-411.37 1198.64,-474.38 584.69,-106.35 774.43,255.9 892.17,725.85 111.48,444.93 -34.18,347.47 -386.52,383.28 -849.61,86.36 -681.13,178.74 -1433.8,-116.32 -273.23,-107.12 -291.07,-197.53 -270.49,-518.43zm-7539.18 4525.06c-188.32,32.42 -354.68,8.06 -540.17,22.6 -195.59,15.34 -354.51,34.97 -430.78,173.93 108.23,294.07 710.39,170.37 1026.21,212.59 64.53,134.58 127.95,403.61 98.74,562.59 -725.46,298.91 -1140.92,214.35 -1536.52,1162.66 -168.36,403.58 -555.4,859.03 -146.72,1338.83 258.43,303.41 373.71,157.01 617.88,294.4 79.86,44.95 248.85,414.27 376.97,543.79 190.08,192.15 492.13,130.6 751.53,164.5 20.23,471.81 -605.94,522.44 -90.83,1040 246.17,247.34 282.11,91.12 291.79,522.87 5.59,249.15 4.1,517.03 36.01,764.99 112.03,870.28 777.22,1496.84 1412.77,1833.25 693.29,366.98 937.13,187.32 1285.69,331.37 762.64,315.17 1958.24,560.03 2655.92,51.8 462.21,-336.7 375.33,-578.95 654.1,-959.41 308.7,36.92 610.16,265.6 1018.02,202.31 280.24,-43.49 639.57,-320.73 667.22,-599.76 54.85,-553.58 -450.99,-1474.81 -450.75,-2040.47 66.75,-26.53 678.96,-217.47 737.01,-223.06 100.59,112.64 211.07,289.61 273.28,434.49 -159.11,189.3 -249.74,231.82 -226.56,598.83 43.49,688.89 816.86,541.36 916.49,193.88 119.05,-415.16 -204.09,-377.27 -367.15,-475.59 37.5,-293.96 599.36,-371.16 1219.81,-789.55 859.7,-579.73 527.22,-1278.4 663.75,-1387.97 76.32,-43.06 125.07,-24.82 231.94,-29.54 195.2,-8.61 188.85,29.03 225.56,-118.5 -86.56,-140.02 -163.69,-54.54 -543.18,-78.05l-458.32 -1084.72c148.12,-111.12 325.03,-113.54 493.05,-243.96 343.56,-266.69 -123.99,-787.06 -683.09,-333.01 -191.53,155.54 -214.22,227.13 -236.18,540.84 -227.89,119.1 -1580.72,745.76 -1808.19,760.26 -56.92,-191.99 -97.8,-243.62 -99.13,-493.79 1542.62,-406.29 2149.41,-1345.44 2158.18,-1349.57 361.96,-16.92 747.45,168.14 1188.86,132.68 -34.27,-387.45 -555.61,-357.36 -873.17,-599.05 18.47,-213.57 143.65,-460.38 247.36,-594.88 163.33,-5.15 916.84,79.53 931.68,-145.08 -168.16,-498.46 -1151.69,185.98 -899.29,-854.91 188.31,-47.26 1091.55,-223.42 1178.74,-307.87 -224.73,-319.48 -726.96,-164.38 -1175.69,-206.46 -132.36,-176 -353.49,-803.81 -433.22,-1009.83 -153.19,-395.87 237.34,-428 131.27,-1172.57 -51.67,-362.78 -373.4,-462.74 -475.5,-943.3 -93.17,-438.46 -163.1,-708.16 -445.13,-1010.83 -559.43,-600.36 -1824.2,243.47 -2233.52,256.08 -168.41,5.18 -530.75,-390.89 -960.67,-477.55 -510.13,-102.82 -846.31,111.75 -1093.54,351.93 -411.38,399.65 -196.62,513.7 -897.32,560.69 -441.3,29.6 -817.58,160.55 -1207.89,219.19 -702.6,105.56 -1442.58,-651.54 -2377.05,-326.4 -692.17,240.84 -766.15,1396.23 -584.82,2128.25 157.07,634.09 255.79,277.19 -58.58,1130.3 -191.86,520.67 -103.15,766.65 -156.89,1325.82z"/>
   <path class="fil2" d="M8962.96 12151l29.15 154.4c-37.17,365.26 -769.21,569.76 -854.32,537.96 -139.98,-130.34 -429.83,-760.34 -168.04,-947.76 227.29,-162.72 385.33,35.82 470.72,107.19 129.48,108.21 77.95,53.32 260.87,51.44 158.36,-1.63 175.15,-4.88 261.61,96.78zm-2444.61 -667.38c980.54,-157.93 419.72,757.02 -338.84,773.66 -49.98,-94.53 -636.68,-956.06 -8.31,-974.39 88.46,-2.58 129.5,13.63 188.34,53.36l137.46 127.32c4.88,4.64 14.1,13.52 21.36,20.05zm-2605.94 -756.8c29.6,-170.27 121.27,-231.48 315.07,-210.33 210.76,23 187.17,164.6 326.49,188.6 141.94,24.46 335.02,-129.36 450.61,52.38 87.2,137.13 -7.13,308.79 -68.46,388.47 -155.2,201.62 -445.32,340.85 -712,351.21 -98.9,-161.16 -364.1,-468.89 -311.71,-770.32zm-1865.13 -352.83c-503.71,647.4 823.19,461.1 1361.75,813.85 442.32,289.72 627.2,801.32 1403.21,990.1 440.2,107.09 593.63,-11.93 943.15,258.54 225.03,174.13 460.86,321.13 764.29,433.65 691.69,256.5 837.13,-1.38 1944.69,413.82 251.07,94.12 721.08,224.37 954.35,60.03 339.15,-238.95 -113.87,-1511.53 -224.38,-1917.85 -133.45,-490.63 -140.29,-405.03 -614.78,-544.74 -669.95,-197.26 -1167.94,-301.12 -1696.32,-699.49 -1104.42,-832.67 -524.53,-1335.22 -565.45,-1522.38l-609.15 -7.6c-232.57,391.14 -213.86,601.45 -665.79,840.5 -383.31,202.76 -797.8,173.19 -1018.23,492.72 -126.78,183.78 -143.04,301.31 -310.99,466.37 -607.27,596.83 -1382.32,-93.51 -1666.34,-77.51z"/>
   <path class="fil3" d="M1645.41 7853.04c-86.33,276.63 -167.83,311.66 -54.29,643.12 135.1,394.4 594.09,650.11 1005.32,521.19 265.73,-83.31 310.09,-275.06 436.59,-327.3 171.61,129.15 228.81,302.81 403.36,466.51 393.91,369.43 1265.78,284.46 1676.77,-158.1 331.04,-356.46 17.32,-600.21 -208.46,-818.72 -402.63,-389.65 -878.18,-861.61 -1476.31,-1130.36 -569.8,-256.03 -1524.45,-468.39 -2172.1,-117.47 -246.07,133.33 -595.45,387.17 -592.48,726.15 4.19,478.44 694.57,255.7 981.59,194.97z"/>
   <path class="fil0" d="M6723.31 14492.17c550.31,-113.06 1099.11,-558.17 1026.33,-1194.07 -290.72,-17.33 -1212.11,-119.19 -1414.25,-209.3 -167.9,-74.85 -352.17,-213.53 -512.07,-299.86 -937.85,-506.31 -1175.42,-266.03 -1785.19,-643.56 -276.45,-171.16 -597.28,-723.98 -897.04,-717.94 -142.81,1274.18 970.94,2251.21 1792.66,2678.6 452.76,235.49 1155.22,516.44 1789.57,386.12z"/>
   <path class="fil0" d="M9495.11 9154.8c-1.9,-184.14 100.62,-534.4 -139.07,-600.56 -195.6,-53.99 -391.65,163.6 -455.22,283.72 -223.07,-28.39 -364.04,-124.19 -563.45,-180.32 -575.12,-161.89 -1153.29,-251.92 -1638.08,131.01 -1047.8,827.64 1914.75,2289.42 3023.49,1900.41 630.05,-221.05 780.44,-1081.03 -227.67,-1534.26z"/>
   <path class="fil3" d="M7723.13 365.43c-225.76,78.21 -255.48,103.33 -414.29,259.48 -71.75,70.54 -229.24,271.62 -290.13,378.25 -1163.77,2038.18 1114.27,2062.9 1272.12,1484.2 77.99,-285.97 -651.64,-278.08 -440.27,-791.32 231.83,-562.96 794.37,-247.19 962.07,-223.3 577.31,82.24 -101.25,-670.22 -182.98,-756.92 -189.82,-201.35 -487.69,-495.49 -906.51,-350.39z"/>
   <path class="fil3" d="M10355.23 1948.18c21.5,520.29 677.43,364.68 441.2,932.35 -174.39,419.07 -618.17,21.77 -990.27,406.6 86.39,519.3 1204.14,879.27 1884.18,-285.41 649.59,-1112.54 -547.37,-1577.9 -1335.1,-1053.54z"/>
   <path class="fil0" d="M9249.56 891.11c-20.58,320.91 -2.75,411.32 270.49,518.43 752.66,295.05 584.19,202.67 1433.8,116.32 352.35,-35.8 498,61.66 386.52,-383.28 -117.73,-469.95 -307.48,-832.2 -892.17,-725.85 -346.42,63.01 -970.58,292.73 -1198.64,474.38z"/>
   <path class="fil3" d="M9325.6 1648.55c-403.14,93.39 -818.37,234.5 -778.14,757.97 69.68,906.76 1585.43,970.93 1587.32,-70.96 0.82,-449.64 -372.8,-788.11 -809.18,-687.01z"/>
   <path class="fil0" d="M2509.61 11225.1c-325.77,469.29 -4.89,1395.73 286,1780.47 201.14,266.03 338.23,387.18 585.73,573.37 147.62,111.04 545.54,356.79 776.53,388.26 -102.4,-180.9 -365.34,-398.66 -493.38,-529.92 -192.34,-197.2 -325.59,-339.62 -461.84,-559.76 -373.83,-604.05 -253.97,-904.44 -358.94,-1656.76l-334.1 4.35z"/>
   <path class="fil3" d="M1140.23 8960.1c109.52,331.5 38.99,529.85 382.73,665.97 205.69,81.44 467.43,17.74 608.5,-123.58 73.5,-73.62 77.79,-93.93 81.42,-190.03 -322.14,-183.31 -677.57,-264.97 -885.84,-655.19 -140.76,-263.73 -41.25,-374.85 -233.19,-405.73 -131.1,-21.09 -207.15,4.27 -351.48,-37.44 -142.26,-41.12 -183.17,-109.49 -314.52,-155.87 -193.27,173.91 -283.85,471.06 -84.99,670.08 271.56,271.76 514.13,126.11 797.37,231.79z"/>
   <path class="fil4" d="M13421.91 9312.45c-373.28,346.65 -40.65,727.7 410.15,557.61 207.57,-78.31 632.19,-417.69 733.07,-592.85 -286.98,-385.59 -1034.43,-911.49 -1255.41,-495.62 -126.99,238.95 39.44,338.92 112.19,530.85z"/>
   <path class="fil3" d="M3743.16 9794.12c-116.35,-79.29 -620.03,-476.37 -691.16,-495.62 -307.93,-83.33 -645.35,217.27 -625.48,504.32 45.21,653.15 1244.42,800.62 1316.64,-8.7z"/>
   <path class="fil4" d="M8962.96 12151c-86.47,-101.65 -103.26,-98.4 -261.61,-96.78 -182.92,1.88 -131.39,56.77 -260.87,-51.44 -85.39,-71.36 -243.43,-269.91 -470.72,-107.19 -261.79,187.43 28.05,817.42 168.04,947.76 85.12,31.8 817.15,-172.7 854.32,-537.96l-29.15 -154.4z"/>
   <path class="fil4" d="M4224.12 11497.13c266.68,-10.36 556.81,-149.58 712,-351.21 61.33,-79.68 155.67,-251.34 68.46,-388.47 -115.59,-181.74 -308.67,-27.92 -450.61,-52.38 -139.32,-24 -115.73,-165.6 -326.49,-188.6 -193.8,-21.15 -285.47,40.06 -315.07,210.33 -52.4,301.43 212.8,609.15 311.71,770.32z"/>
   <path class="fil4" d="M6518.35 11483.62c-7.26,-6.53 -16.48,-15.41 -21.36,-20.05l-137.46 -127.32c-58.83,-39.73 -99.87,-55.94 -188.34,-53.36 -628.37,18.32 -41.67,879.86 8.31,974.39 758.56,-16.64 1319.38,-931.59 338.84,-773.66z"/>
   <path class="fil1" d="M6996.75 6301.21c399.53,-184.45 844.43,158.51 470.2,364.65 -144.6,79.64 -373.02,57.2 -502.86,-21.5 -172.51,-104.57 -109.73,-277.42 32.66,-343.15zm-28.61 -206.53c-823.06,274.65 -253.71,1001.02 502.55,789.92 803.99,-224.42 286.42,-1053.2 -502.55,-789.92z"/>
   <path class="fil1" d="M9446.54 4935.98c-593.67,208.54 -263.49,1009.69 300.12,842.09 437.98,-130.25 316.62,-1058.72 -300.12,-842.09z"/>
   <path class="fil1" d="M4422.46 5308.07c-505.21,160.06 -376.35,1061.89 224.35,906.02 470.61,-122.11 328.82,-1081.29 -224.35,-906.02z"/>
   <path class="fil2" d="M6996.75 6301.21c-142.39,65.74 -205.17,238.59 -32.66,343.15 129.84,78.7 358.26,101.14 502.86,21.5 374.23,-206.14 -70.67,-549.1 -470.2,-364.65z"/>
   <path class="fil3" d="M8062.99 2019.63c450.85,301.79 521.41,-351.49 481.55,-482.85 -149.42,-32.51 -270.44,18.67 -369.87,92.71 -154.23,114.86 -140.92,198.44 -111.68,390.14z"/>
   <path class="fil3" d="M10294.71 2953.62l131.42 1.61 177.24 -19.22 40.39 -319.02 -142.85 -106.47c-160.12,61.84 -258.82,210.49 -206.2,443.1z"/>
  </g>
 </g>
</svg>
